<?xml version="1.0" encoding="UTF-8"?>
<svg width="16px" height="16px" viewBox="0 0 16 16" version="1.1" xmlns="http://www.w3.org/2000/svg" xmlns:xlink="http://www.w3.org/1999/xlink">
    <title>-mockplus-</title>
    <g id="后台" stroke="none" stroke-width="1" fill="none" fill-rule="evenodd">
        <g id="切图" transform="translate(-883.000000, -266.000000)" fill="#999999" fill-rule="nonzero">
            <g id="手风琴/一级菜单/默认备份-6" transform="translate(859.000000, 254.000000)">
                <g id="案件" transform="translate(24.000000, 12.000000)">
                    <path d="M13.0007826,7.99999472 L7.00000352,7.99999472 L7.00078496,6.99999472 L7.00000352,5.99999472 L13.0007826,5.99999472 L13.0000035,6.99999472 L13.0007826,7.99999472 Z M13.0007826,11.9999912 L7.00000352,11.9999912 L7.00078496,10.9999912 L7.00000352,9.9999912 L13.0007826,9.9999912 L13.0000035,10.9999912 L13.0007826,11.9999912 Z M16,2 L8,2 C8,2 6.05344766,0 6.05344766,0 L1.00467357,0 L0,2.00074909 L0,16 L16,16 L16,2 Z M14,14 L2,14 L2,4 L14,4 L14,14 Z M2.99398446,5.99999472 L2.99398446,7.99999472 L5.0000043,7.99999472 L5.0000043,5.99999472 L2.99398446,5.99999472 Z M3.00000508,9.9999912 L3.00000508,11.9999912 L5.00000508,11.9999912 L5.00000508,9.9999912 L3.00000508,9.9999912 Z" id="形状"></path>
                </g>
            </g>
        </g>
    </g>
</svg>