<?xml version="1.0" encoding="UTF-8"?>
<svg width="16px" height="16px" viewBox="0 0 16 16" version="1.1" xmlns="http://www.w3.org/2000/svg" xmlns:xlink="http://www.w3.org/1999/xlink">
    <title>-mockplus-</title>
    <g id="后台" stroke="none" stroke-width="1" fill="none" fill-rule="evenodd">
        <g id="切图" transform="translate(-883.000000, -226.000000)" fill="#999999" fill-rule="nonzero">
            <g id="手风琴/一级菜单/默认备份" transform="translate(859.000000, 214.000000)">
                <g id="省系统案件" transform="translate(24.000000, 12.000000)">
                    <path d="M6.330373,6 L12.669627,6 C12.8348135,6 13,6.09367089 13,6.23544304 L13,7.76455696 C13,7.90632911 12.8685613,8 12.669627,8 L6.330373,8 C6.1651865,8 6,7.90632911 6,7.76455696 L6,6.23417722 C6,6.09367089 6.1651865,6 6.330373,6 L6.330373,6 Z M3.23815621,6 L4.76184379,6 C4.8809219,6 5,6.11708861 5,6.2943038 L5,6.7056962 C5,6.88291139 4.90524968,7 4.76184379,7 L3.23815621,7 C3.09475032,7 3,6.88291139 3,6.7056962 L3,6.2943038 C3.02432778,6.14556962 3.1190781,6 3.23815621,6 Z M6.330373,10 L12.669627,10 C12.8348135,10 13,10.0936709 13,10.235443 L13,11.764557 C13,11.9063291 12.8685613,12 12.669627,12 L6.330373,12 C6.1651865,12 6,11.9063291 6,11.764557 L6,10.2341772 C6,10.0936709 6.1651865,10 6.330373,10 L6.330373,10 Z M3.23815621,10 L4.76184379,10 C4.8809219,10 5,10.1170886 5,10.2943038 L5,10.7056962 C5,10.8829114 4.90524968,11 4.76184379,11 L3.23815621,11 C3.09475032,11 3,10.8829114 3,10.7056962 L3,10.2943038 C3.02432778,10.1455696 3.1190781,10 3.23815621,10 Z M2.3009303,4 C2.15046515,4 2,4.14688368 2,4.36919412 L2,13.6308059 C2,13.8531163 2.11972496,14 2.3009303,14 L13.6990697,14 C13.8495349,14 14,13.8531163 14,13.6308059 L14,4.36919412 C14,4.18459706 13.880275,4 13.6990697,4 L2.3009303,4 Z M0.332142857,0 L15.6678571,0 C15.8678571,0 16,0.153110048 16,0.384844174 L16,15.6151558 C16,15.84689 15.8678571,16 15.6678571,16 L0.332142857,16 C0.166071429,16 0,15.84689 0,15.6151558 L0,0.384844174 C0,0.192422087 0.166071429,0 0.332142857,0 Z" id="形状"></path>
                </g>
            </g>
        </g>
    </g>
</svg>